<?xml version="1.0" standalone="no"?>
<!DOCTYPE svg PUBLIC "-//W3C//DTD SVG 20010904//EN"
 "http://www.w3.org/TR/2001/REC-SVG-20010904/DTD/svg10.dtd">
<svg version="1.0" xmlns="http://www.w3.org/2000/svg"
 width="200.000000pt" height="200.000000pt" viewBox="0 0 200.000000 200.000000"
 preserveAspectRatio="xMidYMid meet">
<metadata>
Created by potrace 1.16, written by Peter Selinger 2001-2019
</metadata>
<g transform="translate(0.000000,200.000000) scale(0.100000,-0.100000)"
fill="currentcolor" stroke="none">
<path d="M927 1690 c-107 -27 -204 -106 -253 -206 -26 -54 -29 -69 -32 -196
-4 -125 -2 -136 15 -141 20 -7 132 -27 145 -27 4 0 8 56 8 125 0 104 3 132 19
163 69 134 234 161 333 56 47 -50 58 -92 58 -219 l0 -115 33 1 c17 0 55 6 82
13 l50 11 0 130 c-1 121 -3 134 -29 191 -35 77 -112 154 -189 189 -64 30 -175
41 -240 25z"/>
<path d="M516 1069 l-26 -31 0 -338 0 -339 24 -28 24 -28 462 0 462 0 24 28
24 28 0 339 0 340 -28 32 -29 31 -103 -22 c-237 -50 -469 -50 -694 -1 -50 11
-95 20 -102 20 -7 0 -24 -14 -38 -31z m534 -184 c56 -29 68 -102 26 -152 l-25
-29 24 -94 c13 -52 22 -97 19 -102 -7 -10 -181 -10 -188 0 -3 5 6 51 19 103
l24 94 -24 25 c-18 18 -25 37 -25 64 0 47 13 72 48 90 35 20 66 20 102 1z"/>
</g>
</svg>
