<?xml version="1.0" standalone="no"?>
<!DOCTYPE svg PUBLIC "-//W3C//DTD SVG 20010904//EN"
 "http://www.w3.org/TR/2001/REC-SVG-20010904/DTD/svg10.dtd">
<svg version="1.0" xmlns="http://www.w3.org/2000/svg"
 width="1000.000000pt" height="1000.000000pt" viewBox="0 0 1000.000000 1000.000000"
 preserveAspectRatio="xMidYMid meet">

<g transform="translate(0.000000,1000.000000) scale(0.100000,-0.100000)"
fill="#ffff" stroke="none">
<path d="M4595 9989 c-1132 -91 -2203 -567 -3023 -1342 -917 -867 -1455 -1988
-1562 -3252 -13 -155 -13 -635 0 -790 107 -1264 645 -2385 1562 -3252 827
-782 1893 -1252 3042 -1343 166 -13 606 -13 772 0 1356 107 2589 743 3459
1785 666 798 1056 1755 1145 2810 13 155 13 635 0 790 -107 1264 -645 2385
-1562 3252 -827 781 -1894 1253 -3042 1343 -148 12 -643 11 -791 -1z m930
-1018 c890 -122 1669 -506 2296 -1131 328 -327 552 -635 754 -1035 212 -420
339 -838 402 -1320 26 -201 26 -769 0 -970 -63 -482 -190 -900 -402 -1320
-199 -395 -424 -704 -744 -1026 -640 -640 -1432 -1027 -2346 -1146 -201 -26
-769 -26 -970 0 -793 103 -1476 400 -2095 912 -52 43 -169 153 -260 244 -634
637 -1019 1427 -1137 2336 -26 201 -26 769 0 970 61 467 180 866 382 1280 196
402 437 738 765 1065 445 446 964 770 1545 964 315 106 579 160 970 200 22 2
186 2 365 1 261 -3 354 -7 475 -24z"/>
<path d="M4962 8283 c-53 -91 -440 -761 -669 -1158 -102 -176 -192 -330 -199
-342 l-14 -23 920 0 c506 0 920 4 920 8 0 4 -69 127 -153 273 -84 145 -241
415 -347 599 -361 624 -402 695 -410 703 -4 5 -26 -22 -48 -60z"/>
<path d="M4080 4995 l0 -1665 420 0 420 0 0 1665 0 1665 -420 0 -420 0 0
-1665z"/>
<path d="M5090 4995 l0 -1665 420 0 420 0 0 1665 0 1665 -420 0 -420 0 0
-1665z"/>
<path d="M4092 3208 c15 -23 193 -330 518 -893 342 -591 388 -670 395 -670 7
0 53 79 395 670 325 563 503 870 518 893 l14 22 -927 0 -927 0 14 -22z"/>
</g>
</svg>
